<svg 
  xmlns="http://www.w3.org/2000/svg" viewBox="0 0 47.610179 13.716798" height="51.844" width="179.944">
  <path d="M0 0h47.61v13.717H0z" fill="#eeeeec"/>
  <path d="M8.292 10.288a2.74 2.74 0 0 1-2.739-2.74 2.06 2.06 0 1 1 0-4.118h8.278a1.572 1.572 0 1 1-.377 3.097 1.63 1.63 0 0 1-2.51 1.712 2.74 2.74 0 0 1-2.652 2.049zm.002-.6l.18-.008.184-.024.18-.04L9 9.568l.17-.068.145-.072.157-.095.141-.102.128-.11.121-.12.115-.136.102-.141.09-.15.078-.155.064-.16.06-.196.23-.753.664.423.08.05.073.039.065.03.07.024.073.02.075.015.092.01.063.003.112-.006.112-.017.085-.022.107-.04.082-.04.085-.05.084-.063.067-.06.071-.08.056-.074.055-.091.04-.083.038-.101.024-.095.016-.103.005-.102-.007-.12-.026-.147-.147-.85.848.157.145.028.13.008.092-.005.102-.016.09-.023.08-.03.096-.045.072-.045.081-.06.067-.06.06-.067.06-.082.045-.072.047-.096.03-.08.022-.09.016-.102.004-.1-.004-.096-.016-.103-.022-.085-.033-.09-.043-.09-.046-.074-.06-.08-.06-.066-.07-.064-.074-.055-.076-.047-.097-.046-.08-.03-.09-.023-.1-.015-.112-.006H5.565l-.164.008-.14.022-.142.036-.133.048-.13.064-.12.072-.11.083-.105.095-.096.104-.084.114-.072.117-.06.127-.05.135-.036.143-.022.14-.008.152.008.15.022.142.037.143.047.13.063.13.073.12.082.11.096.106.104.095.11.083.121.073.13.063.13.047.144.037.141.02.182.01.553.03.016.554.004.13.007.099.015.116.001.01.017.092.025.11.002.006.021.075.003.008.036.108.04.098.041.094.046.089.044.078.006.008.058.09.063.09.005.007.046.057.08.092.006.007.06.065.065.06.007.006.087.076.005.005.06.046.004.004.095.067.085.054.008.006.078.044.088.045.1.045.082.033.01.003.11.038.007.002.083.024.114.026.008.002.094.016.1.013.108.007z" fill="#4e9a06"/>
  <path d="M41.26 7.113a1.69 1.69 0 0 1 .14-.546 1.55 1.55 0 0 1 .298-.445c.124-.127.27-.226.44-.298.174-.072.366-.108.576-.108.229 0 .432.038.61.114.182.072.337.178.464.318s.224.31.292.508c.068.199.101.42.101.667v.17a.164.164 0 0 1-.05.12.16.16 0 0 1-.12.052h-2.186v.039c.009.287.096.509.26.666.17.153.38.229.63.229.234 0 .407-.032.52-.095.119-.068.214-.142.286-.223a.368.368 0 0 1 .09-.07.27.27 0 0 1 .113-.018h.19c.047 0 .09.017.128.05a.122.122 0 0 1 .044.12.702.702 0 0 1-.108.255c-.06.089-.146.173-.26.254-.11.076-.25.142-.42.197-.164.05-.36.076-.584.076-.211 0-.401-.036-.57-.108a1.477 1.477 0 0 1-.446-.305 1.61 1.61 0 0 1-.298-.457 1.856 1.856 0 0 1-.14-.578 2.85 2.85 0 0 1 0-.584zm.565.02h1.785v-.02c0-.258-.082-.463-.248-.616-.16-.157-.376-.235-.648-.235a.902.902 0 0 0-.342.064.79.79 0 0 0-.28.17.783.783 0 0 0-.19.268.944.944 0 0 0-.077.349zm-1.36 1.776a.164.164 0 0 1-.05.12.165.165 0 0 1-.12.052h-.236a.162.162 0 0 1-.12-.051.166.166 0 0 1-.05-.12V4.743c0-.047.017-.087.05-.12a.162.162 0 0 1 .12-.051h.235c.047 0 .087.017.12.05a.166.166 0 0 1 .051.12zm-4.285-.66c0-.17.034-.318.101-.445a.986.986 0 0 1 .28-.324c.118-.089.256-.16.412-.216.162-.055.33-.097.508-.127l.896-.146v-.08c0-.216-.072-.377-.216-.483a.827.827 0 0 0-.527-.165c-.186 0-.328.034-.426.102a1.025 1.025 0 0 0-.24.24.225.225 0 0 1-.084.07.295.295 0 0 1-.12.02h-.19a.192.192 0 0 1-.128-.05.15.15 0 0 1-.044-.122.628.628 0 0 1 .108-.285c.068-.097.157-.184.267-.26a1.54 1.54 0 0 1 .387-.185 1.609 1.609 0 0 1 .997.007c.165.055.305.135.42.24.118.107.209.238.272.395.068.157.102.337.102.54V8.91a.164.164 0 0 1-.05.12.165.165 0 0 1-.12.052h-.237a.162.162 0 0 1-.12-.051.166.166 0 0 1-.05-.12V8.65a.624.624 0 0 1-.179.216c-.08.06-.173.11-.28.152a1.535 1.535 0 0 1-.323.095c-.11.021-.213.032-.31.032-.166 0-.319-.023-.459-.07a1.195 1.195 0 0 1-.349-.184.895.895 0 0 1-.222-.286.838.838 0 0 1-.076-.355zm1.168.349c.154 0 .294-.023.42-.07a.983.983 0 0 0 .323-.19.921.921 0 0 0 .286-.68v-.16l-.75.122c-.266.043-.478.11-.635.203-.156.093-.235.214-.235.362 0 .047.01.093.032.14a.411.411 0 0 0 .102.133.512.512 0 0 0 .178.102c.076.025.17.038.28.038zm-4.03-.946c.017.17.053.313.108.432.06.118.13.215.21.292a.845.845 0 0 0 .28.17c.1.033.204.05.31.05.204 0 .377-.037.52-.112a.775.775 0 0 0 .337-.381.316.316 0 0 1 .09-.134.193.193 0 0 1 .12-.038h.19c.047 0 .087.017.12.05a.137.137 0 0 1 .052.12.83.83 0 0 1-.102.338c-.06.119-.15.23-.273.337a1.608 1.608 0 0 1-1.055.368c-.232 0-.44-.038-.622-.114a1.413 1.413 0 0 1-.457-.311 1.491 1.491 0 0 1-.292-.464 1.862 1.862 0 0 1-.114-.571 9.128 9.128 0 0 1-.013-.248c0-.102.004-.189.013-.26.017-.203.06-.394.127-.572.072-.178.17-.333.292-.464.123-.13.273-.234.45-.31.179-.077.385-.115.617-.115a1.583 1.583 0 0 1 1.054.375c.123.101.214.213.273.336a.786.786 0 0 1 .102.33.138.138 0 0 1-.05.12.168.168 0 0 1-.12.05h-.192a.229.229 0 0 1-.12-.03.377.377 0 0 1-.09-.14.769.769 0 0 0-.337-.381 1.097 1.097 0 0 0-.838-.057.783.783 0 0 0-.28.165c-.08.077-.15.174-.209.292a1.241 1.241 0 0 0-.1.432 2.479 2.479 0 0 0 0 .445zm-1.758.514a.282.282 0 0 0-.07-.197.494.494 0 0 0-.197-.14 2.162 2.162 0 0 0-.343-.107c-.135-.034-.294-.07-.476-.108-.343-.072-.584-.19-.724-.356a.918.918 0 0 1-.203-.59.861.861 0 0 1 .306-.667c.1-.09.228-.16.38-.21a1.77 1.77 0 0 1 .546-.076c.207 0 .387.023.54.07.156.047.287.106.393.178a.83.83 0 0 1 .241.235c.056.08.086.158.09.235a.137.137 0 0 1-.052.12.164.164 0 0 1-.12.05h-.21a.477.477 0 0 1-.095-.012.24.24 0 0 1-.095-.076.599.599 0 0 0-.248-.178 1.051 1.051 0 0 0-.444-.076.937.937 0 0 0-.477.108.334.334 0 0 0-.177.299c0 .08.017.145.05.196a.447.447 0 0 0 .165.127c.077.033.177.065.3.096l.47.108c.194.042.357.097.488.165.132.063.237.137.317.222.08.08.138.17.172.273.034.097.05.2.05.31 0 .127-.031.25-.095.369a.916.916 0 0 1-.26.312c-.114.089-.254.16-.42.215-.16.055-.344.083-.552.083a1.811 1.811 0 0 1-.965-.26 1.124 1.124 0 0 1-.267-.242.514.514 0 0 1-.095-.247.144.144 0 0 1 .045-.12.169.169 0 0 1 .127-.052h.228c.026 0 .056.004.09.013.034.004.065.027.094.07a.656.656 0 0 0 .28.216c.119.05.273.076.463.076a1.163 1.163 0 0 0 .515-.122.542.542 0 0 0 .171-.132.286.286 0 0 0 .064-.178zm-4.113-2.451c.2 0 .385.036.553.108.174.068.324.167.45.298.127.127.229.283.305.47.076.187.12.396.134.629a3.353 3.353 0 0 1 0 .413 1.946 1.946 0 0 1-.134.628 1.475 1.475 0 0 1-.305.477 1.33 1.33 0 0 1-.45.304 1.47 1.47 0 0 1-.553.102c-.258 0-.465-.042-.622-.127a1.135 1.135 0 0 1-.362-.305v.197a.164.164 0 0 1-.05.12.16.16 0 0 1-.12.052h-.237a.162.162 0 0 1-.12-.051.166.166 0 0 1-.05-.12V4.743c0-.047.017-.087.05-.12a.164.164 0 0 1 .12-.051h.235c.047 0 .087.017.121.05.034.035.05.075.05.12v1.405c.08-.107.2-.204.356-.292.157-.093.367-.14.63-.14zm-.984 1.988c.022.275.115.493.28.654a.88.88 0 0 0 .64.24c.28 0 .499-.089.655-.266.16-.177.251-.419.273-.724a5.253 5.253 0 0 0 0-.355c-.021-.305-.112-.546-.273-.724-.156-.178-.374-.267-.654-.267-.266 0-.48.083-.642.248-.16.16-.253.39-.28.692a2.123 2.123 0 0 0-.012.254c0 .101.004.184.013.248zM23.58 5.715c.229 0 .432.036.61.108.178.068.33.163.457.286.127.123.226.273.298.45a1.783 1.783 0 0 1 .146.712v.33a2.04 2.04 0 0 1-.146.705 1.308 1.308 0 0 1-.756.736c-.177.068-.38.102-.61.102-.228 0-.43-.034-.609-.102a1.42 1.42 0 0 1-.457-.292 1.396 1.396 0 0 1-.305-.444 1.883 1.883 0 0 1-.133-.578l-.013-.127v-.33c.004-.055.008-.102.013-.14a1.87 1.87 0 0 1 .133-.571c.077-.178.179-.328.305-.451a1.33 1.33 0 0 1 .457-.286c.178-.072.382-.108.61-.108zm.927 1.98c.009-.071.013-.158.013-.26 0-.105-.004-.196-.013-.272a1.417 1.417 0 0 0-.083-.356.858.858 0 0 0-.177-.286.833.833 0 0 0-.28-.19.985.985 0 0 0-.387-.07.993.993 0 0 0-.388.07.822.822 0 0 0-.457.476c-.042.11-.07.229-.082.356a2.447 2.447 0 0 0-.013.273c0 .101.004.188.013.26.014.127.04.245.082.356a.82.82 0 0 0 .458.476c.11.047.24.07.387.07a.985.985 0 0 0 .387-.07.833.833 0 0 0 .28-.19.858.858 0 0 0 .177-.286c.043-.11.07-.229.083-.356zm-5.02-2.074c.076 0 .128.023.158.07.03.047.049.085.057.114L20.4 8.32l.648-3.512c.014-.063.039-.108.076-.133a.218.218 0 0 1 .121-.038h.254a.12.12 0 0 1 .095.044.12.12 0 0 1 .045.095c0 .013-.002.03-.007.05l-.78 3.925a.633.633 0 0 1-.096.248c-.042.055-.114.083-.216.083h-.254c-.097 0-.17-.03-.216-.09a.7.7 0 0 1-.108-.24l-.584-2.122-.584 2.12a.711.711 0 0 1-.108.243c-.046.06-.118.089-.216.089h-.254c-.101 0-.173-.028-.216-.083a.662.662 0 0 1-.095-.248l-.78-3.924a.248.248 0 0 1-.007-.05.13.13 0 0 1 .038-.096.139.139 0 0 1 .101-.044h.254c.043 0 .083.013.121.038.038.025.064.07.076.133l.648 3.512.698-2.515a.458.458 0 0 1 .058-.114c.03-.047.082-.07.158-.07z" fill="#2e3436"/>
</svg>
